<?xml version="1.0" encoding="UTF-8"?>
<svg xmlns="http://www.w3.org/2000/svg" viewBox="0 0 106.37 95.34">
  <g style="fill: #eeeded; stroke-width: 0px;">
    <path d="M24.62,17.64c-3.03-5.07-2.66-9.44-.59-11.1,2.07-1.65,1.62-5.41.79-6.54,4.25.69.51,8.58,6.07,15.23,1.89,2.27,2.03,2.41,1.62,6.34-.42,3.93.6,5.24,2.98,7.2,2.38,1.96,3.64,2.59,3.63,5.79,0,.38,0,.73.04,1.04-1.09,5.49-.85,12.31-.7,14.89v.2s.05.2.05.2c.14.9,1.18,8.56-4.24,10.24-.81-1.14-2.21-2.67-5.1-3.42-1.41-.37-2.96-.55-4.46-.71-.12,0-.25-.03-.38-.05.23-.99.37-2.24.42-3.89.2-7.55.72-6.61,2.27-10.75,1.55-4.14,1.76-3.21-.73-7.76-2.47-4.54-2.27-6.09-1.24-9.71,1.03-3.62.91-4.96-.43-7.2Z"/>
    <path class="cls-1" d="M64.54,55.38c-.1-.81-.21-1.73-.4-2.73h0c.77-1.07,1.23-2.08,1.54-3.1.93-3.11-2.07-3.62,2.47-6.83,4.55-3.2,6.28-2.93,5.68-5.27-2.23-8.75,3.31-10.76,3.01-13.44-.32-2.69-1.94-5.28-2.18-6.51-.38-2.07,1.94-4.27,1.9-6.72-.07-3.03-2.31-6.28-.55-7.99,2.34,6.41,4.13,7.16,4.96,9.02s-.1,2.17.52,4.86c.61,2.69,1.02,1.76,1.6,4.55.57,2.79.35,1.66,0,5.68-.36,4.04-.16,6.31.77,8.89.93,2.59,1.96,1.24,1.24,6.09-.72,4.87-.93,6.73-.41,8.48.04.12.07.23.1.33-.89.79-1.68,1.69-2.52,2.64-.82.94-1.76,2.01-3,3.21-.91.88-1.57,1.49-1.97,1.81-.13-.04-.26-.07-.38-.11-.87-.26-2.07-.61-3.81-.91-1.59-.26-2.67-.38-3.51-.38-1.41,0-2.27.34-2.99.72l-.03.02c-.12.02-.52.08-1.47.08-.07,0-.13,0-.19,0-.16-.56-.29-1.6-.39-2.4Z"/>
    <path class="cls-1" d="M14.75,90.24c-1.38-2.21-1.52-1.52-4.41-7.31-2.89-5.79-2.48-7.99-1.24-10.48s-2.13-1.84-2.41-6.19c-.64-9.86-4.08-6.71-5.03-15.45-.3-2.73,1.06-6.54.69-10.39-.77-8.02-5.79-7.75,1.79-18.42-2.15,9.22,2.87,7.57,3.86,12.96s.41,7.84,1.93,10.48,2.55,1.29,4.41,3.82,1.17,6.38,2.07,8.27c1.63,3.42,7.95,2.75,11.82,3.76,4.09,1.07,2.84,4.18,5.69,3.72,10.44-1.69,8.27-14.75,8.27-14.75,0,0-.83-14.33,2.21-18.33s-3.58-6.34,2.07-16.82,2.39-2.22,2.39-2.22c0,0-1.43,3.33,1.05,11.18s6.34,3.86,5.65,10.89-1.24,4.27-1.1,7.99c.14,3.72,4.55,4.41,5.65,8.55,1.46,5.46.07,9.99,5.03,9.99s1.59-1.45,7.37-.48,4.69,2.76,9.37-1.79,5.24-7.17,9.92-7.58,5.79-4.62,6.34-13.71c.18-3.01,2.67-5.59,2.48-9.86-.13-2.8-2.63-5.08-3.45-13.09,0-.96,4.73,7.98,7.03,12.82,4.13,8.7,1.21,9.02.55,12.47s.76,13.71-3.72,19.37c-5.38,6.75-2.69,8.55-7.58,16.68-.96-8.06-7.51-12.82-9.72-9.79s-6.89-2.14-15.23,4.13c-1.88,1.41-12.53,1.14-12.22,9.51.13,3.62-3.24,7.37-3.24,9.58s2.27,5.58,2.27,5.58c0,0-3.09-.87-4.58-4.07-.72-1.54.65-5.02-.34-6.55-1.09-1.69-2.78-1.67-3.96-3.34-2.13-3.02.9-4.03-5.91-7.41-1.72-.85-4.82-.83-6.62-1.52s-3.86-.83-5.24-1.65-3.39-1.22-6.7-.53c-1.95.41-6.58-1.03-5.96,3.93-1.36,1.14-2.95,1.81-3.22,3.22-.44,2.32,1.69,3.89,2.1,6.98s-.14,5.84-.14,5.84Z"/>
    <path class="cls-1" d="M22.34,78c5.14,3.89,14.72,9.03,16.8,8.89s-6.8,4.44-10.41,3.19c-3.61-1.25-9.67-7.11-7.08-5,6.23,5.09.69-7.08.69-7.08Z"/>
    <path class="cls-1" d="M84.03,77.97c-5.14,3.89-14.72,9.03-16.8,8.89s6.8,4.44,10.41,3.19,9.67-7.11,7.08-5c-6.23,5.09-.69-7.08-.69-7.08Z"/>
  </g>
</svg>